PathFileType	4	(X/Y/Z)	Kaydara																																																																																																																									
DataRate	CameraRate	NumFrames	NumMarkers	Units	OrigDataRate	OrigDataStartFrame	OrigNumFrames																																																																																																																					
30	30	5	41	mm	30	203	321																																																																																																																					
Frame#	Time	PAIB_LFHD			PAIB_RFHD			PAIB_LBHD			PAIB_RBHD			PAIB_LFTShould			PAIB_RFTShould			PAIB_LRRShould			PAIB_RRRShould			PAIB_T10			PAIB_STRN			PAIB_TRUN			PAIB_LSHO			PAIB_LUPA			PAIB_LELB			PAIB_LFRM			PAIB_LWRA			PAIB_LWRB			PAIB_LFIN			PAIB_RSHO			PAIB_RUPA			PAIB_RELB			PAIB_RFRM			PAIB_RWRA			PAIB_RWRB			PAIB_RFIN			PAIB_LFWT			PAIB_RFWT			PAIB_LBWT			PAIB_RBWT			PAIB_LTHI			PAIB_LKNE			PAIB_LSHN			PAIB_LANK			PAIB_LHEE			PAIB_LTOE			PAIB_RTHI			PAIB_RKNE			PAIB_RSHN			PAIB_RANK			PAIB_RHEE			PAIB_RTOE		
		X1	Y1	Z1	X2	Y2	Z2	X3	Y3	Z3	X4	Y4	Z4	X5	Y5	Z5	X6	Y6	Z6	X7	Y7	Z7	X8	Y8	Z8	X9	Y9	Z9	X10	Y10	Z10	X11	Y11	Z11	X12	Y12	Z12	X13	Y13	Z13	X14	Y14	Z14	X15	Y15	Z15	X16	Y16	Z16	X17	Y17	Z17	X18	Y18	Z18	X19	Y19	Z19	X20	Y20	Z20	X21	Y21	Z21	X22	Y22	Z22	X23	Y23	Z23	X24	Y24	Z24	X25	Y25	Z25	X26	Y26	Z26	X27	Y27	Z27	X28	Y28	Z28	X29	Y29	Z29	X30	Y30	Z30	X31	Y31	Z31	X32	Y32	Z32	X33	Y33	Z33	X34	Y34	Z34	X35	Y35	Z35	X36	Y36	Z36	X37	Y37	Z37	X38	Y38	Z38	X39	Y39	Z39	X40	Y40	Z40	X41	Y41	Z41
																																																																																																																												
201	6.727	316.23936	1563.04306	560.49065	133.81565	1588.95874	555.41664	333.56754	1606.37665	439.82388	133.02378	1638.69797	450.91667	265.25547	1365.37125	439.60068	145.8216	1367.43301	428.9608	290.66521	1465.44205	321.82659	136.17339	1469.85519	317.2707	215.87215	1335.70007	198.18903	207.78202	1293.85757	453.23864	202.5528	1190.03891	446.70181	399.40495	1395.28214	390.05371	452.03419	1170.53055	389.72309	475.67078	1083.89816	354.31175	491.13609	974.14131	408.97045	428.72047	871.81892	508.68523	470.25242	845.01129	443.48156	480.85835	818.68584	511.41708	21.87754	1390.8493	374.82693	-46.0878	1233.34389	294.90976	-71.78378	1120.52628	260.81621	-86.53414	980.65216	284.13218	-24.80119	874.61174	380.39291	-91.31867	860.42931	329.05708	-83.42056	823.31192	392.9604	307.35859	945.60608	396.26125	72.73103	951.633	383.56819	255.41578	1000.7827	174.96996	111.48108	997.08336	170.51113	294.18879	720.79231	186.65218	306.85875	468.33157	292.96957	272.80516	286.42445	306.7671	258.78504	98.31141	227.11775	201.30678	91.33531	178.65568	244.42444	49.88356	403.4169	39.74114	683.48885	230.3825	20.99871	467.99469	360.23075	76.65492	287.53975	320.0975	53.07066	127.66735	167.95612	125.71087	149.60283	129.96349	48.20954	61.99187	316.98378
202	6.76	313.3938	1564.0506	577.66163	130.83504	1588.44528	570.5954	331.60252	1607.06436	457.02553	130.73461	1637.80243	465.91995	264.909	1365.15076	456.43803	145.46127	1366.74927	445.28603	290.49038	1465.1207	338.41656	136.01575	1469.03595	333.42216	216.55489	1335.01099	214.77036	207.59399	1293.13477	469.2057	202.69161	1189.50584	463.23071	398.84106	1395.5014	407.40669	451.23863	1171.0582	410.6015	475.15228	1083.6647	376.96541	489.23203	975.3392	435.29198	425.16663	876.90605	537.6598	466.91006	847.57706	473.70811	476.74576	823.55042	542.59636	21.63999	1389.73526	390.47039	-45.44059	1232.00096	310.38235	-70.76103	1119.04343	276.39439	-85.35028	979.21898	299.93393	-23.89179	873.50845	396.68457	-90.1539	859.02206	345.07618	-82.39824	822.06131	409.07272	307.98777	944.4149	412.34459	73.50016	952.6445	400.74333	254.84699	999.99161	191.2962	110.93651	996.27045	187.45319	293.11972	721.69357	199.44555	306.28942	467.71526	300.50741	272.66586	285.38076	311.3129	258.41625	98.66501	227.93737	201.2681	92.73247	179.32251	244.51405	49.83359	403.45726	38.7701	683.14957	255.12011	22.98486	470.50552	395.09342	76.71966	286.17031	373.84914	49.62882	110.6213	240.35742	120.70833	127.25905	199.36302	48.38937	62.58386	397.97295
203	6.793	310.06624	1564.89182	594.97467	127.4224	1587.71973	586.00063	329.14337	1607.50717	474.34536	127.94838	1636.56021	481.06937	263.98722	1364.60464	473.5817	144.62472	1365.76691	462.15897	289.57958	1464.40872	355.47077	135.11076	1467.87628	350.15778	216.25004	1333.82767	231.87855	206.90855	1292.37946	486.30592	202.2945	1188.74382	480.44792	397.82856	1395.42679	424.85336	450.43026	1171.26152	430.15991	474.44256	1083.38501	397.78854	486.56559	976.1805	459.46831	420.14	881.62636	563.78685	462.24007	849.86946	501.19614	471.02245	827.82318	571.01032	20.91974	1388.24326	407.09972	-45.39379	1230.17052	327.16007	-70.20616	1117.09061	293.26443	-84.60569	977.22954	316.78648	-23.0585	871.5419	413.49453	-89.36528	857.06215	361.91578	-81.51134	820.1033	425.87658	308.57164	942.77206	428.71742	74.0006	952.43912	418.3226	253.7343	999.00322	208.14346	110.20121	995.21362	204.47533	291.57522	722.72354	212.36357	305.88943	466.83708	307.58421	272.76381	284.34233	315.23535	257.98136	98.96926	228.70007	201.00376	93.60003	180.53253	244.6591	49.72509	403.65154	39.24361	682.31903	278.43115	24.63763	472.65072	427.39719	76.52592	286.56582	427.03857	46.99471	96.83423	316.64053	117.38691	108.75119	272.81464	48.86915	63.57	478.61305
204	6.827	306.44346	1565.28275	612.57751	123.72441	1586.63696	602.0628	326.14082	1607.43195	491.86443	124.69497	1634.93591	496.88313	262.66506	1363.58063	491.26865	143.27621	1364.21783	479.83212	287.86049	1463.20602	372.91599	133.38498	1466.03851	367.79457	215.02533	1332.12494	249.66579	205.84433	1291.08505	504.13513	201.61884	1187.45491	498.45097	396.28616	1394.85397	442.46365	449.45602	1170.88326	448.54759	473.32638	1082.61673	416.97521	483.27217	976.21773	481.14628	414.14139	885.35233	586.9585	456.45855	851.32652	525.73154	464.08932	831.00342	596.10874	19.55954	1386.15387	424.83524	-46.05068	1227.67754	345.07034	-70.37491	1114.49188	311.17926	-84.37364	974.63043	334.55406	-22.59263	868.92365	431.07647	-88.81274	854.38095	379.52503	-80.80524	817.24396	443.3831	308.80514	940.53703	445.79536	74.09443	950.92735	436.51516	252.32872	997.5972	225.68378	108.78717	993.5833	222.60208	289.73059	723.71452	225.60421	305.13758	466.4785	314.14494	272.76178	283.41749	318.11834	257.54438	99.37958	229.2902	200.23796	94.49773	181.44995	245.02672	49.63197	403.55083	39.52288	680.8284	300.58216	25.55719	473.62789	455.83134	76.29304	289.05775	478.49941	46.36064	87.27664	392.72987	116.35325	95.17957	348.21465	49.21486	62.73904	558.96938
205	6.86	302.58957	1565.07675	630.69649	119.72998	1585.04425	618.98933	322.66857	1606.63956	509.86317	121.03685	1632.72308	513.48091	260.90427	1361.90216	509.68578	141.48143	1361.91223	498.45093	285.42057	1461.34811	390.95703	130.96538	1463.47839	386.23772	212.83375	1329.62494	268.21583	204.50214	1289.12048	522.78088	200.65168	1185.47203	517.26818	394.36157	1393.49457	460.16251	447.97253	1169.55345	466.01067	471.59115	1081.11549	434.77463	479.42947	975.32211	500.82241	407.45567	887.43965	607.26093	449.92886	851.59683	547.18159	456.31947	832.43813	618.08678	17.5218	1383.21945	443.57639	-47.45945	1224.40269	363.87012	-71.31356	1111.09764	330.17921	-84.74649	971.16318	353.39668	-22.4938	865.51247	449.70131	-88.61838	850.63705	397.88345	-80.44955	813.51479	461.90056	308.43212	937.70325	463.63522	73.63347	947.95609	455.49221	250.62656	995.62561	244.20448	107.16387	991.34087	241.49723	288.06265	724.70261	239.01562	304.77453	465.78056	320.04547	273.09509	282.77302	321.19774	257.1315	99.82985	229.79721	199.67377	95.36418	182.20171	245.42746	49.59466	403.42644	39.03609	678.28285	321.11069	25.60259	472.39464	479.98341	75.33827	292.82068	526.26671	46.53993	81.62613	466.11626	116.7198	86.03596	422.32315	46.53201	65.91227	635.80132
